<svg width="1940" height="496" viewBox="0 0 1940 496" fill="none" xmlns="http://www.w3.org/2000/svg">
<g opacity="0.5">
<path d="M26.75 334.5H0.5V492H30.9062V389.188L103.094 492H129.344V334.5H99.1563V437.313L26.75 334.5Z" fill="#372B43" fill-opacity="0.62"/>
<path d="M231.951 495.281C253.826 495.281 275.482 486.969 289.92 469.469C302.826 453.719 307.857 435.125 308.295 413.25C307.857 392.25 303.264 373 289.92 356.813C275.92 339.75 254.701 331.219 231.951 331.219C209.201 331.219 187.764 339.531 173.982 356.813C161.295 372.125 155.607 392.25 155.607 413.25C155.607 434.25 161.295 454.156 173.982 469.469C187.545 486.531 209.42 495.281 231.951 495.281ZM231.951 467.281C218.389 467.5 205.264 462.031 197.607 451.531C189.514 441.031 187.107 427.031 186.889 413.25C187.107 399.469 189.514 385.25 197.607 374.969C205.264 364.469 218.389 359 231.951 359.219C245.514 359 258.42 364.469 266.295 374.969C274.17 385.25 276.795 399.469 276.795 413.25C276.795 427.031 274.17 441.031 266.295 451.531C258.42 462.031 245.514 467.5 231.951 467.281Z" fill="#372B43" fill-opacity="0.62"/>
<path d="M444.016 334.5H314.953V364.25H364.609V492H394.359V364.25H444.016V334.5Z" fill="#372B43" fill-opacity="0.62"/>
<path d="M553.09 492H583.715L535.59 334.5H491.184L443.059 492H473.684L481.121 467.5H545.434L553.09 492ZM489.652 439.5L513.059 362.5L536.902 439.5H489.652Z" fill="#372B43" fill-opacity="0.62"/>
<path d="M708.279 415.219C705.873 412.156 703.248 409.313 700.404 406.688C700.623 406.469 701.061 406.031 701.279 405.594C707.186 398.156 710.686 388.531 710.467 379.344C710.248 369.719 707.186 360.094 701.279 352.656C696.029 345 687.936 339.313 678.748 336.688C674.373 335.156 669.779 334.5 665.186 334.5H602.404V492H668.904C673.936 492 678.967 490.906 683.779 489.594C693.404 486.531 702.154 480.625 708.279 472.531C714.404 464 717.686 453.938 717.686 443.875C717.686 433.375 714.404 423.313 708.279 415.219ZM664.967 362.281C668.467 362.281 673.717 365.125 675.904 367.969C678.748 371.031 680.061 375.188 680.279 379.344C680.498 383.063 678.967 386.781 676.561 389.625C674.154 392.688 669.779 395.094 666.717 395.75H632.592V362.281H664.967ZM687.717 443.875C687.498 449.563 685.529 455.031 681.154 458.75C677.654 461.813 673.279 464 668.467 464H632.592V423.75H668.467C673.498 423.75 677.654 424.844 682.029 429.219C685.748 433.156 687.936 438.625 687.717 443.875Z" fill="#372B43" fill-opacity="0.62"/>
</g>
<g opacity="0.5">
<path d="M1099.75 3.5H1073.5V161H1103.91V58.1875L1176.09 161H1202.34V3.5H1172.16V106.313L1099.75 3.5Z" fill="#372B43" fill-opacity="0.62"/>
<path d="M1304.95 164.281C1326.83 164.281 1348.48 155.969 1362.92 138.469C1375.83 122.719 1380.86 104.125 1381.29 82.25C1380.86 61.25 1376.26 42 1362.92 25.8125C1348.92 8.75001 1327.7 0.21875 1304.95 0.21875C1282.2 0.21875 1260.76 8.53125 1246.98 25.8125C1234.29 41.125 1228.61 61.25 1228.61 82.25C1228.61 103.25 1234.29 123.156 1246.98 138.469C1260.54 155.531 1282.42 164.281 1304.95 164.281ZM1304.95 136.281C1291.39 136.5 1278.26 131.031 1270.61 120.531C1262.51 110.031 1260.11 96.0313 1259.89 82.25C1260.11 68.4688 1262.51 54.25 1270.61 43.9688C1278.26 33.4688 1291.39 28 1304.95 28.2188C1318.51 28 1331.42 33.4688 1339.29 43.9688C1347.17 54.25 1349.79 68.4688 1349.79 82.25C1349.79 96.0313 1347.17 110.031 1339.29 120.531C1331.42 131.031 1318.51 136.5 1304.95 136.281Z" fill="#372B43" fill-opacity="0.62"/>
<path d="M1517.02 3.5H1387.95V33.25H1437.61V161H1467.36V33.25H1517.02V3.5Z" fill="#372B43" fill-opacity="0.62"/>
<path d="M1626.09 161H1656.71L1608.59 3.5H1564.18L1516.06 161H1546.68L1554.12 136.5H1618.43L1626.09 161ZM1562.65 108.5L1586.06 31.5L1609.9 108.5H1562.65Z" fill="#372B43" fill-opacity="0.62"/>
<path d="M1781.28 84.2188C1778.87 81.1563 1776.25 78.3125 1773.4 75.6875C1773.62 75.4688 1774.06 75.0313 1774.28 74.5938C1780.19 67.1563 1783.69 57.5313 1783.47 48.3438C1783.25 38.7188 1780.19 29.0938 1774.28 21.6563C1769.03 14 1760.94 8.3125 1751.75 5.6875C1747.37 4.15625 1742.78 3.5 1738.19 3.5H1675.4V161H1741.9C1746.94 161 1751.97 159.906 1756.78 158.594C1766.4 155.531 1775.15 149.625 1781.28 141.531C1787.4 133 1790.69 122.938 1790.69 112.875C1790.69 102.375 1787.4 92.3125 1781.28 84.2188ZM1737.97 31.2813C1741.47 31.2813 1746.72 34.125 1748.9 36.9688C1751.75 40.0313 1753.06 44.1875 1753.28 48.3438C1753.5 52.0625 1751.97 55.7813 1749.56 58.625C1747.15 61.6875 1742.78 64.0938 1739.72 64.75H1705.59V31.2813H1737.97ZM1760.72 112.875C1760.5 118.563 1758.53 124.031 1754.15 127.75C1750.65 130.813 1746.28 133 1741.47 133H1705.59V92.75H1741.47C1746.5 92.75 1750.65 93.8438 1755.03 98.2188C1758.75 102.156 1760.94 107.625 1760.72 112.875Z" fill="#372B43" fill-opacity="0.62"/>
</g>
<g opacity="0.5">
<path d="M1248.75 290.5H1222.5V448H1252.91V345.188L1325.09 448H1351.34V290.5H1321.16V393.313L1248.75 290.5Z" fill="#372B43" fill-opacity="0.62"/>
<path d="M1453.95 451.281C1475.83 451.281 1497.48 442.969 1511.92 425.469C1524.83 409.719 1529.86 391.125 1530.29 369.25C1529.86 348.25 1525.26 329 1511.92 312.813C1497.92 295.75 1476.7 287.219 1453.95 287.219C1431.2 287.219 1409.76 295.531 1395.98 312.813C1383.29 328.125 1377.61 348.25 1377.61 369.25C1377.61 390.25 1383.29 410.156 1395.98 425.469C1409.54 442.531 1431.42 451.281 1453.95 451.281ZM1453.95 423.281C1440.39 423.5 1427.26 418.031 1419.61 407.531C1411.51 397.031 1409.11 383.031 1408.89 369.25C1409.11 355.469 1411.51 341.25 1419.61 330.969C1427.26 320.469 1440.39 315 1453.95 315.219C1467.51 315 1480.42 320.469 1488.29 330.969C1496.17 341.25 1498.79 355.469 1498.79 369.25C1498.79 383.031 1496.17 397.031 1488.29 407.531C1480.42 418.031 1467.51 423.5 1453.95 423.281Z" fill="#372B43" fill-opacity="0.62"/>
<path d="M1666.02 290.5H1536.95V320.25H1586.61V448H1616.36V320.25H1666.02V290.5Z" fill="#372B43" fill-opacity="0.62"/>
<path d="M1775.09 448H1805.71L1757.59 290.5H1713.18L1665.06 448H1695.68L1703.12 423.5H1767.43L1775.09 448ZM1711.65 395.5L1735.06 318.5L1758.9 395.5H1711.65Z" fill="#372B43" fill-opacity="0.62"/>
<path d="M1930.28 371.219C1927.87 368.156 1925.25 365.313 1922.4 362.688C1922.62 362.469 1923.06 362.031 1923.28 361.594C1929.19 354.156 1932.69 344.531 1932.47 335.344C1932.25 325.719 1929.19 316.094 1923.28 308.656C1918.03 301 1909.94 295.313 1900.75 292.688C1896.37 291.156 1891.78 290.5 1887.19 290.5H1824.4V448H1890.9C1895.94 448 1900.97 446.906 1905.78 445.594C1915.4 442.531 1924.15 436.625 1930.28 428.531C1936.4 420 1939.69 409.938 1939.69 399.875C1939.69 389.375 1936.4 379.313 1930.28 371.219ZM1886.97 318.281C1890.47 318.281 1895.72 321.125 1897.9 323.969C1900.75 327.031 1902.06 331.188 1902.28 335.344C1902.5 339.063 1900.97 342.781 1898.56 345.625C1896.15 348.688 1891.78 351.094 1888.72 351.75H1854.59V318.281H1886.97ZM1909.72 399.875C1909.5 405.563 1907.53 411.031 1903.15 414.75C1899.65 417.813 1895.28 420 1890.47 420H1854.59V379.75H1890.47C1895.5 379.75 1899.65 380.844 1904.03 385.219C1907.75 389.156 1909.94 394.625 1909.72 399.875Z" fill="#372B43" fill-opacity="0.62"/>
</g>
<g opacity="0.5">
<path d="M208.75 3.5H182.5V161H212.906V58.1875L285.094 161H311.344V3.5H281.156V106.313L208.75 3.5Z" fill="#372B43" fill-opacity="0.62"/>
<path d="M413.951 164.281C435.826 164.281 457.482 155.969 471.92 138.469C484.826 122.719 489.857 104.125 490.295 82.25C489.857 61.25 485.264 42 471.92 25.8125C457.92 8.75001 436.701 0.21875 413.951 0.21875C391.201 0.21875 369.764 8.53125 355.982 25.8125C343.295 41.125 337.607 61.25 337.607 82.25C337.607 103.25 343.295 123.156 355.982 138.469C369.545 155.531 391.42 164.281 413.951 164.281ZM413.951 136.281C400.389 136.5 387.264 131.031 379.607 120.531C371.514 110.031 369.107 96.0313 368.889 82.25C369.107 68.4688 371.514 54.25 379.607 43.9688C387.264 33.4688 400.389 28 413.951 28.2188C427.514 28 440.42 33.4688 448.295 43.9688C456.17 54.25 458.795 68.4688 458.795 82.25C458.795 96.0313 456.17 110.031 448.295 120.531C440.42 131.031 427.514 136.5 413.951 136.281Z" fill="#372B43" fill-opacity="0.62"/>
<path d="M626.016 3.5H496.953V33.25H546.609V161H576.359V33.25H626.016V3.5Z" fill="#372B43" fill-opacity="0.62"/>
<path d="M735.09 161H765.715L717.59 3.5H673.184L625.059 161H655.684L663.121 136.5H727.434L735.09 161ZM671.652 108.5L695.059 31.5L718.902 108.5H671.652Z" fill="#372B43" fill-opacity="0.62"/>
<path d="M890.279 84.2188C887.873 81.1563 885.248 78.3125 882.404 75.6875C882.623 75.4688 883.061 75.0313 883.279 74.5938C889.186 67.1563 892.686 57.5313 892.467 48.3438C892.248 38.7188 889.186 29.0938 883.279 21.6563C878.029 14 869.936 8.3125 860.748 5.6875C856.373 4.15625 851.779 3.5 847.186 3.5H784.404V161H850.904C855.936 161 860.967 159.906 865.779 158.594C875.404 155.531 884.154 149.625 890.279 141.531C896.404 133 899.686 122.938 899.686 112.875C899.686 102.375 896.404 92.3125 890.279 84.2188ZM846.967 31.2813C850.467 31.2813 855.717 34.125 857.904 36.9688C860.748 40.0313 862.061 44.1875 862.279 48.3438C862.498 52.0625 860.967 55.7813 858.561 58.625C856.154 61.6875 851.779 64.0938 848.717 64.75H814.592V31.2813H846.967ZM869.717 112.875C869.498 118.563 867.529 124.031 863.154 127.75C859.654 130.813 855.279 133 850.467 133H814.592V92.75H850.467C855.498 92.75 859.654 93.8438 864.029 98.2188C867.748 102.156 869.936 107.625 869.717 112.875Z" fill="#372B43" fill-opacity="0.62"/>
</g>
</svg>
